Coordinates
version=1
nRows=10
nColumns=40
inDegrees=yes

Units are S.I. units (second, meters, Newtons, ...)
Angles are in degrees.

endheader
time	pelvis_tilt	pelvis_list	pelvis_rotation	pelvis_tx	pelvis_ty	pelvis_tz	hip_flexion_r	hip_adduction_r	hip_rotation_r	knee_angle_r	knee_angle_r_beta	ankle_angle_r	subtalar_angle_r	mtp_angle_r	hip_flexion_l	hip_adduction_l	hip_rotation_l	knee_angle_l	knee_angle_l_beta	ankle_angle_l	subtalar_angle_l	mtp_angle_l	lumbar_extension	lumbar_bending	lumbar_rotation	arm_flex_r	arm_add_r	arm_rot_r	elbow_flex_r	pro_sup_r	wrist_flex_r	wrist_dev_r	arm_flex_l	arm_add_l	arm_rot_l	elbow_flex_l	pro_sup_l	wrist_flex_l	wrist_dev_l
     44.52878571	     -3.95347258	     -3.82091776	     -5.67949942	      1.07221500	      0.93018396	      0.40693190	     22.48105559	     -2.48455289	    -14.40971148	     11.54466891	     11.54466891	      2.40657503	      8.05290747	      8.13587098	      2.77119002	     -4.45048514	    -15.78427067	     13.10239879	     13.10239879	     14.15616170	     -8.22694723	     -7.05119476	     -8.86095682	      3.26115305	      1.71781587	    -10.33870076	    -12.65669653	     -2.04558698	     31.82829760	     44.23494729	      0.00000000	      0.00000000	     21.76074438	    -22.65698310	    -15.57061067	     65.91300762	     45.90798178	      0.00000000	      0.00000000
     44.54257143	     -3.76461178	     -3.55658096	     -5.76104410	      1.07357740	      0.92940112	      0.40878740	     22.14432828	     -2.50200299	    -13.66305586	     12.38460101	     12.38460101	      1.40432455	      6.27794861	      3.67581852	      1.67055531	     -4.14735935	    -16.30279330	     12.29994334	     12.29994334	     14.07700254	     -7.48079913	     -7.95516945	     -8.81519724	      3.01792225	      1.39041677	     -9.85560782	    -12.79118338	     -1.84344378	     32.40439797	     44.33437880	      0.00000000	      0.00000000	     21.18356355	    -22.33788020	    -17.02169046	     65.89778269	     46.13297950	      0.00000000	      0.00000000
     44.55635714	     -3.62969779	     -3.37691470	     -5.75252163	      1.07495308	      0.92860083	      0.41059804	     22.00861908	     -2.60430151	    -13.30650755	     13.78096221	     13.78096221	      1.79151117	      5.30444593	      2.90319397	      0.81882161	     -3.95285040	    -16.39298626	     11.88014346	     11.88014346	     14.36869764	     -7.19301870	     -7.95208140	     -8.73016078	      2.90438450	      1.30012236	     -9.31091577	    -12.87531694	     -1.83385660	     32.66045319	     44.34586264	      0.00000000	      0.00000000	     20.77888603	    -22.12938660	    -16.96444642	     65.56688945	     46.13748570	      0.00000000	      0.00000000
     44.57014286	     -3.49200647	     -3.21290333	     -5.69269759	      1.07640149	      0.92776915	      0.41253170	     21.88844602	     -2.67314996	    -12.63575230	     15.22779347	     15.22779347	      2.16807671	      3.95628291	      1.97364750	      0.01134215	     -3.80536332	    -16.44530779	     11.54924858	     11.54924858	     14.65537229	     -6.85571377	     -7.92825075	     -8.63106976	      2.80375212	      1.14830423	     -8.68505829	    -12.95944088	     -1.83992455	     33.03296211	     44.35371736	      0.00000000	      0.00000000	     20.26423581	    -21.84925408	    -17.01231002	     65.08335065	     46.14610100	      0.00000000	      0.00000000
     44.58392857	     -3.35584716	     -3.06269276	     -5.57314064	      1.07794787	      0.92695387	      0.41451778	     21.77248052	     -2.71603107	    -11.81621283	     16.63410398	     16.63410398	      2.53595964	      2.38386884	      1.00075781	     -0.71639857	     -3.71575242	    -16.49270111	     11.37077208	     11.37077208	     14.97567370	     -6.53480680	     -7.85086918	     -8.53931842	      2.76263367	      0.95583976	     -7.99432323	    -13.03790609	     -1.84935146	     33.51237125	     44.35849731	      0.00000000	      0.00000000	     19.67600018	    -21.49529074	    -17.13433120	     64.46059129	     46.15796258	      0.00000000	      0.00000000
     44.59771429	     -3.21114113	     -2.99498873	     -5.39340782	      1.07954139	      0.92618291	      0.41675209	     21.46693485	     -2.55329189	    -10.66817815	     17.54188159	     17.54188159	      2.05879922	      0.08863745	     -2.03392852	     -1.25724445	     -3.84993081	    -16.74244643	     11.66755515	     11.66755515	     15.89284332	     -5.59302277	     -6.94030827	     -8.46402751	      2.78316722	      0.75542982	     -7.48897969	    -13.23264589	     -1.42071296	     34.64576152	     44.43319300	      0.00000000	      0.00000000	     19.21506422	    -20.81829482	    -18.02903408	     63.37127508	     46.32332898	      0.00000000	      0.00000000
     44.61150000	     -3.10981370	     -2.90524300	     -5.20296113	      1.08106767	      0.92549466	      0.41895091	     21.45059170	     -2.53884005	     -9.87415608	     18.88587189	     18.88587189	      2.69543069	     -1.36329088	     -2.40553014	     -1.80791801	     -3.89901652	    -16.65833547	     11.74413749	     11.74413749	     16.19828583	     -5.39098452	     -6.76660357	     -8.35154262	      2.80297453	      0.49799659	     -6.61793685	    -13.32435338	     -1.46074579	     35.20697637	     44.44337539	      0.00000000	      0.00000000	     18.45720773	    -20.49345160	    -17.97479290	     62.51662527	     46.32029884	      0.00000000	      0.00000000
     44.62528571	     -2.91515769	     -2.96939377	     -4.95381063	      1.08264516	      0.92507127	      0.42136808	     21.22384555	     -2.37542009	     -9.33133817	     19.98293230	     19.98293230	      3.40359814	     -2.45683776	     -2.72810328	     -2.36122237	     -4.17067298	    -16.48745893	     12.03390254	     12.03390254	     16.52129045	     -5.30265669	     -6.62196806	     -8.44551594	      2.93228155	      0.37699908	     -5.78235986	    -13.49857363	     -1.52418459	     35.72330521	     44.44509441	      0.00000000	      0.00000000	     17.76624819	    -20.06162327	    -17.94320482	     61.69782357	     46.31067158	      0.00000000	      0.00000000
     44.63907143	     -2.84617636	     -2.95932298	     -4.67851578	      1.08407570	      0.92467150	      0.42387999	     21.14365992	     -2.20668036	     -8.56122496	     20.95589451	     20.95589451	      4.01655722	     -4.10179142	     -2.81644542	     -2.62311741	     -4.44211480	    -16.39194806	     12.59043950	     12.59043950	     16.93278473	     -5.08486319	     -6.20031882	     -8.33401025	      3.02339244	      0.02368309	     -4.82173128	    -13.54831960	     -1.57597688	     36.57472697	     44.44062727	      0.00000000	      0.00000000	     16.96864730	    -19.66138202	    -18.04720758	     60.23699551	     46.30811367	      0.00000000	      0.00000000
     44.65285714	     -2.79610344	     -3.08064078	     -4.38129008	      1.08551392	      0.92449145	      0.42661913	     20.93586144	     -1.87861361	     -7.97714560	     21.62658589	     21.62658589	      4.59418039	     -5.51543100	     -2.72551069	     -2.73143041	     -4.94765624	    -16.34694276	     13.44491857	     13.44491857	     17.53430802	     -4.73305880	     -5.45913453	     -8.23388219	      3.24869046	     -0.19348970	     -3.93942234	    -13.67656508	     -1.57409480	     37.60588204	     44.43446524	      0.00000000	      0.00000000	     16.33319614	    -19.10457258	    -18.22797016	     58.36105429	     46.31417491	      0.00000000	      0.00000000
